<svg xmlns="http://www.w3.org/2000/svg"  viewBox="0 0 64 64" width="512px" height="512px" baseProfile="basic"><linearGradient id="G2wGtM33z8anvV_Tgav-da" x1="50.042" x2="50.042" y1=".727" y2="20.672" gradientUnits="userSpaceOnUse"><stop offset="0" stop-color="#6dc7ff"/><stop offset="1" stop-color="#e6abff"/></linearGradient><polygon fill="url(#G2wGtM33z8anvV_Tgav-da)" points="38.285,14.762 37.546,0.727 43.456,7.745 51.458,2.328 53.305,11.869 62.538,11.069 52.073,20.672"/><linearGradient id="G2wGtM33z8anvV_Tgav-db" x1="29.538" x2="29.538" y1="16.633" y2="61" gradientUnits="userSpaceOnUse"><stop offset="0" stop-color="#1a6dff"/><stop offset="1" stop-color="#c822ff"/></linearGradient><path fill="url(#G2wGtM33z8anvV_Tgav-db)" d="M29.227,18.633c0.924,0,1.757,0.031,2.463,0.079c14.219,0.952,23.498,9.926,23.145,21.052	c-0.327,10.25-6.472,12.361-13.026,12.68L41.292,59h-5.263l0.294-6.57c-0.724-0.021-1.433-0.043-2.12-0.055L32.97,59l-6.821-0.554	l0.653-6.06c-0.739-0.025-1.506-0.065-2.294-0.126l-0.39,5.54l-7.202,0.416l-1.16-7.602c-2.574-0.83-5.138-2.028-7.52-3.757	c-7.571-5.494-3.647-17.45,5.447-24.207C18.086,19.381,24.727,18.633,29.227,18.633 M29.227,16.633	C29.227,16.633,29.227,16.633,29.227,16.633c-4.031,0-11.566,0.573-16.737,4.411C6.223,25.7,2.197,32.699,2.232,38.874	c0.023,4.005,1.693,7.325,4.829,9.601c2.047,1.486,4.364,2.706,6.899,3.635l0.978,6.407c0.15,0.981,0.994,1.698,1.976,1.698	c0.039,0,0.077-0.001,0.117-0.003l7.202-0.416c0.133-0.008,0.263-0.028,0.388-0.061c0.344,0.407,0.835,0.661,1.367,0.704	l6.821,0.554C32.863,60.998,32.917,61,32.972,61c0.603,0,1.157-0.271,1.528-0.711c0.027,0.032,0.055,0.063,0.084,0.093	c0.377,0.395,0.9,0.618,1.445,0.618h5.263c1.044,0,1.912-0.802,1.994-1.843l0.381-4.833c4.518-0.43,12.783-2.423,13.167-14.496	c0.393-12.395-10.125-22.115-25.011-23.112C31.002,16.661,30.128,16.633,29.227,16.633L29.227,16.633z"/><linearGradient id="G2wGtM33z8anvV_Tgav-dc" x1="30.527" x2="30.527" y1="28.638" y2="44.641" gradientUnits="userSpaceOnUse"><stop offset="0" stop-color="#6dc7ff"/><stop offset="1" stop-color="#e6abff"/></linearGradient><path fill="url(#G2wGtM33z8anvV_Tgav-dc)" d="M26.379,35.016c0-3.506-2.841-6.349-6.347-6.349c-3.506,0-6.349,2.844-6.349,6.349	c0,3.506,2.844,6.347,6.349,6.347C23.537,41.363,26.379,38.522,26.379,35.016z M47.371,36.641c0-4.421-3.584-8.003-8.003-8.003	c-4.419,0-8.003,3.582-8.003,8.003c0,4.419,3.584,8,8.003,8C43.787,44.641,47.371,41.059,47.371,36.641z"/></svg>